<?xml version="1.0" standalone="no"?>
<!DOCTYPE svg PUBLIC "-//W3C//DTD SVG 20010904//EN"
 "http://www.w3.org/TR/2001/REC-SVG-20010904/DTD/svg10.dtd">
<svg version="1.0" xmlns="http://www.w3.org/2000/svg"
 width="700.000000pt" height="700.000000pt" viewBox="0 0 700.000000 700.000000"
 preserveAspectRatio="xMidYMid meet">
<metadata>
Created by potrace 1.14, written by Peter Selinger 2001-2017
</metadata>
<g transform="translate(0.000000,700.000000) scale(0.100000,-0.100000)"
fill="#000000" stroke="none">
<path d="M3443 6983 c-62 -18 -125 -69 -156 -127 -18 -34 -22 -57 -22 -131 1
-113 32 -187 96 -229 69 -46 74 -68 74 -328 0 -124 -4 -230 -8 -234 -4 -4 -20
-9 -35 -10 -161 -14 -246 -54 -286 -136 -27 -56 -46 -151 -46 -229 l0 -46 -92
-69 c-89 -66 -300 -267 -424 -404 -32 -36 -95 -106 -140 -155 -219 -245 -285
-317 -360 -395 -176 -183 -293 -340 -359 -482 -39 -85 -85 -236 -85 -279 0
-32 -9 -35 -75 -19 -43 11 -174 14 -215 6 -84 -17 -124 -31 -163 -56 -24 -15
-84 -42 -133 -60 -150 -55 -256 -133 -311 -232 -65 -114 -49 -287 44 -458 32
-60 128 -208 142 -220 3 -3 19 -23 35 -45 30 -40 245 -306 256 -315 3 -3 34
-39 69 -80 76 -89 174 -199 256 -288 33 -35 68 -77 78 -92 15 -24 16 -29 2
-40 -40 -33 -2 -93 167 -261 139 -138 245 -238 408 -384 80 -71 147 -132 150
-136 3 -3 65 -56 139 -117 73 -62 141 -123 152 -135 10 -13 36 -79 59 -147 69
-205 105 -261 203 -308 100 -48 141 -53 463 -61 30 -1 32 -4 47 -63 9 -35 19
-85 23 -113 4 -27 9 -54 9 -60 1 -5 3 -16 3 -24 1 -8 8 -11 19 -7 19 8 95 18
135 19 31 1 34 10 43 128 8 93 10 107 17 114 3 3 79 8 169 10 228 7 329 37
420 126 48 47 71 93 115 231 20 62 43 125 50 139 7 14 59 66 116 115 57 49
105 91 108 94 3 3 50 43 105 90 284 241 654 598 702 678 27 44 29 77 6 91 -24
13 -9 40 74 132 37 42 77 87 88 100 11 13 40 48 65 78 25 30 52 62 60 71 13
14 43 48 151 174 25 29 91 107 128 151 44 53 114 149 168 230 207 310 224 554
51 710 -81 73 -146 106 -285 144 -24 7 -43 16 -43 21 0 15 -65 49 -126 65 -72
19 -237 28 -282 16 -36 -11 -40 -8 -48 45 -9 62 -60 207 -99 281 -78 151 -161
259 -366 477 -73 78 -73 78 -314 351 -209 236 -444 471 -553 552 -46 34 -88
63 -93 65 -5 2 -12 35 -14 73 -19 237 -81 316 -271 341 -33 4 -62 9 -66 10 -5
1 -14 2 -21 3 -17 1 -20 50 -21 310 l-1 194 25 16 c96 62 152 152 154 251 1
82 -20 144 -71 200 -67 75 -161 101 -260 73z m991 -2568 c224 -17 283 -101
311 -440 3 -38 8 -88 10 -110 2 -22 7 -67 9 -100 3 -33 8 -98 12 -145 17 -205
-1 -303 -68 -376 -76 -82 -280 -190 -393 -209 -90 -14 -222 0 -375 40 -80 21
-261 55 -325 61 -113 11 -275 5 -350 -11 -11 -3 -31 -7 -45 -9 -40 -7 -190
-45 -244 -61 -75 -23 -133 -30 -232 -29 -90 1 -94 2 -198 54 -269 133 -297
176 -299 459 -1 119 8 316 18 391 1 14 6 50 9 80 4 30 9 66 12 80 2 14 6 36 9
49 10 51 37 135 51 156 19 29 76 67 135 89 106 40 168 43 1039 40 459 -2 870
-6 914 -9z m1546 -893 c177 -79 238 -230 176 -434 -32 -106 -101 -245 -163
-329 -43 -60 -212 -273 -259 -329 -12 -14 -52 -61 -89 -105 -252 -301 -344
-400 -399 -432 -11 -7 -39 -12 -60 -13 -37 0 -46 -7 -155 -121 -251 -264 -563
-567 -666 -647 -41 -32 -132 -58 -231 -68 -94 -8 -1221 -9 -1300 -1 -90 10
-182 48 -235 99 -8 7 -54 51 -104 97 -49 47 -115 108 -145 137 -30 28 -147
147 -260 264 -187 195 -227 229 -270 235 -70 8 -88 18 -141 73 -74 76 -137
149 -249 287 -36 43 -72 86 -80 95 -9 9 -29 33 -45 55 -30 40 -45 58 -85 105
-12 14 -34 40 -48 59 -15 19 -39 48 -53 65 -68 81 -173 222 -207 278 -79 131
-105 206 -106 308 0 63 4 85 27 132 34 68 96 126 181 168 74 36 85 36 155 9
83 -31 275 -28 373 7 22 8 41 14 42 14 1 0 2 -10 2 -22 3 -153 51 -343 124
-487 105 -209 232 -368 571 -715 97 -100 205 -212 240 -251 125 -139 306 -313
384 -371 204 -151 406 -217 640 -210 66 2 130 6 143 9 117 29 160 44 247 86
172 84 344 233 540 466 28 33 80 93 116 135 64 72 96 106 288 305 128 133 285
319 328 390 7 11 31 50 53 87 102 164 170 396 173 584 0 8 10 9 31 3 66 -20
105 -24 211 -23 90 0 118 4 155 21 50 24 69 22 150 -15z"/>
<path d="M2785 4032 c-103 -33 -195 -166 -195 -281 0 -206 176 -351 358 -295
43 14 69 31 109 71 68 69 93 133 89 230 -8 200 -182 333 -361 275z"/>
<path d="M4032 4036 c-158 -52 -244 -242 -185 -410 24 -67 102 -147 164 -168
184 -63 371 81 373 286 1 197 -180 347 -352 292z"/>
</g>
</svg>
